<svg width="45" height="60" viewBox="0 0 45 60" fill="none" xmlns="http://www.w3.org/2000/svg">
<path d="M7.65768 18.8463V29.6626C7.65768 30.4539 7.01778 31.1007 6.22651 31.1007H6.02009C5.22881 31.1007 4.58203 30.4546 4.58203 29.6626V18.8463C4.58203 18.0412 5.21505 17.4082 6.02009 17.4082H6.22651C7.03154 17.4082 7.65768 18.0412 7.65768 18.8463Z" fill="#39E991"/>
<path d="M13.5143 18.3096V35.126C13.5143 35.9035 12.8537 36.5571 12.0762 36.5571H11.8491C11.0579 36.5571 10.418 35.9165 10.418 35.126V18.3096C10.418 17.5046 11.0441 16.8716 11.8491 16.8716H12.0762C12.8675 16.8716 13.5143 17.5184 13.5143 18.3096Z" fill="#39E991"/>
<path d="M19.3424 17.7725V39.2058C19.3424 39.997 18.6956 40.6369 17.9112 40.6369H17.6842C16.8929 40.6369 16.2461 39.997 16.2461 39.2058V17.7725C16.2461 16.9813 16.8929 16.3345 17.6842 16.3345H17.9112C18.6956 16.3345 19.3424 16.9813 19.3424 17.7725Z" fill="#39E991"/>
<path d="M44.3119 43.3412V43.9818C44.3119 45.9428 42.7162 47.5323 40.7546 47.5323C31.9405 47.5323 29.9175 47.5322 29.3464 47.6072V47.5866C24.3236 48.4673 20.5599 52.7615 20.1546 58.0521C20.0651 58.2317 20.0583 58.4443 20.1408 58.6307C20.1408 58.6376 20.1408 58.6376 20.1408 58.6445V58.8509C19.6523 59.2645 16.7349 60 11.6639 60C6.64098 60 3.73046 59.2775 3.20753 58.8654C3.19377 58.0122 3.0768 56.2507 2.81533 55.4319C2.72588 55.1773 2.62955 54.9572 2.53322 54.737C2.26488 54.0964 1.89332 53.4634 1.44608 52.9067C1.41856 52.8723 1.39104 52.8448 1.36351 52.8173C1.33599 52.7898 1.31535 52.7622 1.29471 52.7416C0.998839 52.4044 0.730493 52.1292 0.48967 51.909C0.152518 51.2416 0.17316 50.7256 0.207564 49.5428C0.221325 49.1162 0.235085 48.6276 0.235085 48.0359V28.9125C0.235085 26.4768 1.10893 24.5158 2.67084 23.3736V29.635C2.67084 31.4859 4.17082 32.9859 6.01483 32.9859H6.2419C7.11574 32.9859 7.90702 32.6487 8.50563 32.1051V35.0989C8.50563 36.9429 10.0056 38.4422 11.8496 38.4422H12.0767C12.9505 38.4422 13.7556 38.1058 14.3542 37.5409V39.1784C14.3542 41.0225 15.8542 42.5224 17.6982 42.5224H17.9252C19.7693 42.5224 21.2692 41.0218 21.2692 39.1784V21.6878H21.2417C21.3243 20.9172 21.3174 18.736 21.3036 11.7866C21.2899 6.86001 21.2692 1.94722 21.2692 1.94722C21.2692 0.873843 22.1431 0 23.2234 0H23.7394C24.8403 0 25.7066 0.860081 25.7066 1.94722C25.6447 35.1877 25.6997 35.4767 25.721 35.573C26.0926 37.3138 27.3105 38.7663 28.9893 39.4743C29.2783 39.5775 29.5948 39.7014 29.9389 39.7564C29.9733 39.764 30.0077 39.764 30.0421 39.764L40.7546 39.7839C42.7156 39.7839 44.3119 41.3803 44.3119 43.3412Z" fill="#39E991"/>
</svg>
