<svg width="254" height="60" viewBox="0 0 254 60" fill="none" xmlns="http://www.w3.org/2000/svg">
<path d="M14.6577 18.8463V29.6626C14.6577 30.4539 14.0178 31.1007 13.2265 31.1007H13.0201C12.2288 31.1007 11.582 30.4546 11.582 29.6626V18.8463C11.582 18.0412 12.2151 17.4082 13.0201 17.4082H13.2265C14.0315 17.4082 14.6577 18.0412 14.6577 18.8463Z" fill="#39E991"/>
<path d="M20.5143 18.3096V35.126C20.5143 35.9035 19.8537 36.5571 19.0762 36.5571H18.8491C18.0579 36.5571 17.418 35.9165 17.418 35.126V18.3096C17.418 17.5046 18.0441 16.8716 18.8491 16.8716H19.0762C19.8675 16.8716 20.5143 17.5184 20.5143 18.3096Z" fill="#39E991"/>
<path d="M26.3424 17.7725V39.2058C26.3424 39.997 25.6956 40.6369 24.9112 40.6369H24.6842C23.8929 40.6369 23.2461 39.997 23.2461 39.2058V17.7725C23.2461 16.9813 23.8929 16.3345 24.6842 16.3345H24.9112C25.6956 16.3345 26.3424 16.9813 26.3424 17.7725Z" fill="#39E991"/>
<path d="M51.3119 43.3412V43.9818C51.3119 45.9428 49.7162 47.5323 47.7546 47.5323C38.9405 47.5323 36.9175 47.5322 36.3464 47.6072V47.5866C31.3236 48.4673 27.5599 52.7615 27.1546 58.0521C27.0651 58.2317 27.0583 58.4443 27.1408 58.6307C27.1408 58.6376 27.1408 58.6376 27.1408 58.6445V58.8509C26.6523 59.2645 23.7349 60 18.6639 60C13.641 60 10.7305 59.2775 10.2075 58.8654C10.1938 58.0122 10.0768 56.2507 9.81533 55.4319C9.72588 55.1773 9.62955 54.9572 9.53322 54.737C9.26488 54.0964 8.89332 53.4634 8.44608 52.9067C8.41856 52.8723 8.39104 52.8448 8.36351 52.8173C8.33599 52.7898 8.31535 52.7622 8.29471 52.7416C7.99884 52.4044 7.73049 52.1292 7.48967 51.909C7.15252 51.2416 7.17316 50.7256 7.20756 49.5428C7.22132 49.1162 7.23509 48.6276 7.23509 48.0359V28.9125C7.23509 26.4768 8.10893 24.5158 9.67084 23.3736V29.635C9.67084 31.4859 11.1708 32.9859 13.0148 32.9859H13.2419C14.1157 32.9859 14.907 32.6487 15.5056 32.1051V35.0989C15.5056 36.9429 17.0056 38.4422 18.8496 38.4422H19.0767C19.9505 38.4422 20.7556 38.1058 21.3542 37.5409V39.1784C21.3542 41.0225 22.8542 42.5224 24.6982 42.5224H24.9252C26.7693 42.5224 28.2692 41.0218 28.2692 39.1784V21.6878H28.2417C28.3243 20.9172 28.3174 18.736 28.3036 11.7866C28.2899 6.86001 28.2692 1.94722 28.2692 1.94722C28.2692 0.873843 29.1431 0 30.2234 0H30.7394C31.8403 0 32.7066 0.860081 32.7066 1.94722C32.6447 35.1877 32.6997 35.4767 32.721 35.573C33.0926 37.3138 34.3105 38.7663 35.9893 39.4743C36.2783 39.5775 36.5948 39.7014 36.9389 39.7564C36.9733 39.764 37.0077 39.764 37.0421 39.764L47.7546 39.7839C49.7156 39.7839 51.3119 41.3803 51.3119 43.3412Z" fill="#39E991"/>
<path d="M66.9158 33.7725H82.0058V36.3793H64.3086V23.7133H66.9154L66.9158 33.7725ZM103.436 26.3687L88.3461 26.3688V28.7964L98.4107 28.8339L98.4011 31.4408L88.346 31.4033V33.8219H103.436V36.4288H85.7388V23.7627H103.436L103.436 26.3687ZM124.632 33.7725L124.671 36.3535L123.38 36.3728C123.18 36.3759 122.953 36.3793 122.706 36.3793C120.919 36.3793 118.054 36.2019 116.241 34.4162C115.38 33.5681 114.86 32.4739 114.685 31.1557C113.736 31.2938 112.693 31.3689 111.551 31.3689H109.729V36.3491H107.147V23.8074H109.729V28.7878H111.551C116.834 28.7878 119.599 26.9832 119.599 25.2004V23.9098H122.18V25.2003C122.18 27.3221 120.61 29.4568 117.218 30.5736C117.286 31.4347 117.561 32.0935 118.053 32.5777C119.346 33.8522 122.045 33.8118 123.342 33.7924L124.632 33.7725ZM131.496 26.428C131.254 26.5619 131.007 26.7867 131.007 27.4381C131.007 27.9458 131.171 28.2233 131.592 28.4275C132.018 28.634 132.494 28.6491 132.518 28.6497L141.993 28.6868C143.639 28.6868 146.096 29.7036 146.096 32.5051C146.096 35.3066 143.813 36.3235 142.278 36.3235H128.399V33.7167H142.266C142.38 33.7127 142.719 33.6699 142.999 33.5151C143.241 33.3811 143.489 33.1563 143.489 32.5051C143.489 31.9974 143.325 31.7198 142.903 31.5156C142.478 31.3097 142.004 31.2941 141.977 31.2934L132.508 31.2513V31.2564C130.856 31.2564 128.399 30.2395 128.399 27.438C128.399 24.6365 130.682 23.6196 132.217 23.6196H146.096V26.2265H132.23C132.116 26.2304 131.776 26.2732 131.496 26.428ZM152.389 36.4437H149.808V23.9019H152.389V36.4437ZM173.6 33.7725L173.638 36.3535L172.348 36.3728C172.148 36.3759 171.921 36.3793 171.674 36.3793C169.887 36.3793 167.021 36.2019 165.209 34.4162C164.348 33.5681 163.827 32.4739 163.653 31.1557C162.704 31.2938 161.66 31.3689 160.518 31.3689H158.696V36.3491H156.115V23.8074H158.696V28.7878H160.518C165.802 28.7878 168.566 26.9832 168.566 25.2004V23.9098H171.147V25.2003C171.147 27.3221 169.578 29.4568 166.185 30.5736C166.254 31.4347 166.529 32.0935 167.02 32.5777C168.314 33.8522 171.012 33.8118 172.309 33.7924L173.6 33.7725ZM186.435 23.104L196.625 36.6395H193.348L190.499 32.8671H182.371L179.563 36.6395H176.324L186.435 23.104ZM184.326 30.2599H188.544L186.435 27.4482L184.326 30.2599ZM201.915 35.9624L199.309 35.9624V33.3252H201.915L201.915 35.9624ZM223.335 23.6325L223.381 29.9617C223.4 31.3621 222.835 32.7217 221.79 33.7903C220.681 34.9232 218.524 36.2797 214.542 36.3091C214.504 36.3093 214.465 36.3095 214.427 36.3095C211.412 36.3095 208.895 35.4437 207.328 33.8656C206.251 32.7807 205.668 31.3985 205.685 29.9721L205.638 23.6521L208.245 23.6328L208.292 29.9803L208.291 29.9946C208.281 30.73 208.588 31.4333 209.179 32.0288C210.267 33.1251 212.164 33.7182 214.524 33.7021C216.93 33.6844 218.849 33.0683 219.927 31.967C220.492 31.3892 220.785 30.7072 220.775 29.9945V29.9852L220.728 23.652L223.335 23.6325ZM244.809 23.637V26.2956L232.18 33.6967H244.809V36.3035H227.112V33.6449L239.742 26.2436H227.112V23.6369L244.809 23.637Z" fill="white"/>
</svg>
