<svg width="606" height="141" viewBox="0 0 606 141" fill="none" xmlns="http://www.w3.org/2000/svg">
<path opacity="0.5" d="M535.986 81.446V81.5043L535.993 81.5622C537.317 92.8776 532.483 102.146 522.114 109.765C511.694 117.422 495.744 123.354 475.07 127.844C433.741 136.819 373.963 139.946 303 139.946C232.085 139.946 173.683 132.899 133.043 121.531C112.716 115.845 96.8924 109.095 86.1732 101.647C75.4341 94.1861 70 86.1617 70 77.946C70 73.9323 71.8848 69.8953 75.6679 65.8664C79.4543 61.834 85.0848 57.8751 92.4135 54.0524C107.068 46.4085 128.315 39.4094 154.59 33.4359C207.124 21.4926 279.546 13.6955 358.996 12.946L359.212 10.9717C343.428 7.32209 332.25 4.58747 324.94 2.66515C337.717 5.06517 359.926 9.91744 385.303 16.3529C417.945 24.6304 455.757 35.5091 485.395 47.1193C500.22 52.9269 512.952 58.8993 521.961 64.7973C526.467 67.7471 529.999 70.6515 532.396 73.474C534.796 76.3011 535.986 78.9613 535.986 81.446Z" stroke="#AAAAAA" stroke-width="2"/>
<path d="M56.7809 70.168C55.6769 70.168 54.6849 69.976 53.8049 69.592C52.9409 69.192 52.2609 68.648 51.7649 67.96C51.2689 67.256 51.0129 66.448 50.9969 65.536H53.3249C53.4049 66.32 53.7249 66.984 54.2849 67.528C54.8609 68.056 55.6929 68.32 56.7809 68.32C57.8209 68.32 58.6369 68.064 59.2289 67.552C59.8369 67.024 60.1409 66.352 60.1409 65.536C60.1409 64.896 59.9649 64.376 59.6129 63.976C59.2609 63.576 58.8209 63.272 58.2929 63.064C57.7649 62.856 57.0529 62.632 56.1569 62.392C55.0529 62.104 54.1649 61.816 53.4929 61.528C52.8369 61.24 52.2689 60.792 51.7889 60.184C51.3249 59.56 51.0929 58.728 51.0929 57.688C51.0929 56.776 51.3249 55.968 51.7889 55.264C52.2529 54.56 52.9009 54.016 53.7329 53.632C54.5809 53.248 55.5489 53.056 56.6369 53.056C58.2049 53.056 59.4849 53.448 60.4769 54.232C61.4849 55.016 62.0529 56.056 62.1809 57.352H59.7809C59.7009 56.712 59.3649 56.152 58.7729 55.672C58.1809 55.176 57.3969 54.928 56.4209 54.928C55.5089 54.928 54.7649 55.168 54.1889 55.648C53.6129 56.112 53.3249 56.768 53.3249 57.616C53.3249 58.224 53.4929 58.72 53.8289 59.104C54.1809 59.488 54.6049 59.784 55.1009 59.992C55.6129 60.184 56.3249 60.408 57.2369 60.664C58.3409 60.968 59.2289 61.272 59.9009 61.576C60.5729 61.864 61.1489 62.32 61.6289 62.944C62.1089 63.552 62.3489 64.384 62.3489 65.44C62.3489 66.256 62.1329 67.024 61.7009 67.744C61.2689 68.464 60.6289 69.048 59.7809 69.496C58.9329 69.944 57.9329 70.168 56.7809 70.168ZM77.5628 62.92C77.5628 63.336 77.5388 63.776 77.4908 64.24H66.9788C67.0588 65.536 67.4988 66.552 68.2988 67.288C69.1148 68.008 70.0988 68.368 71.2508 68.368C72.1948 68.368 72.9788 68.152 73.6028 67.72C74.2428 67.272 74.6908 66.68 74.9468 65.944H77.2988C76.9468 67.208 76.2428 68.24 75.1868 69.04C74.1308 69.824 72.8188 70.216 71.2508 70.216C70.0028 70.216 68.8828 69.936 67.8908 69.376C66.9148 68.816 66.1468 68.024 65.5868 67C65.0268 65.96 64.7468 64.76 64.7468 63.4C64.7468 62.04 65.0188 60.848 65.5628 59.824C66.1068 58.8 66.8668 58.016 67.8428 57.472C68.8348 56.912 69.9708 56.632 71.2508 56.632C72.4988 56.632 73.6028 56.904 74.5628 57.448C75.5228 57.992 76.2588 58.744 76.7708 59.704C77.2988 60.648 77.5628 61.72 77.5628 62.92ZM75.3068 62.464C75.3068 61.632 75.1228 60.92 74.7548 60.328C74.3868 59.72 73.8828 59.264 73.2428 58.96C72.6188 58.64 71.9228 58.48 71.1548 58.48C70.0508 58.48 69.1068 58.832 68.3228 59.536C67.5548 60.24 67.1148 61.216 67.0028 62.464H75.3068ZM79.6297 63.376C79.6297 62.032 79.9017 60.856 80.4457 59.848C80.9897 58.824 81.7337 58.032 82.6777 57.472C83.6377 56.912 84.7017 56.632 85.8697 56.632C87.0217 56.632 88.0217 56.88 88.8697 57.376C89.7177 57.872 90.3497 58.496 90.7657 59.248V56.848H92.9737V70H90.7657V67.552C90.3337 68.32 89.6857 68.96 88.8217 69.472C87.9737 69.968 86.9817 70.216 85.8457 70.216C84.6777 70.216 83.6217 69.928 82.6777 69.352C81.7337 68.776 80.9897 67.968 80.4457 66.928C79.9017 65.888 79.6297 64.704 79.6297 63.376ZM90.7657 63.4C90.7657 62.408 90.5657 61.544 90.1657 60.808C89.7657 60.072 89.2217 59.512 88.5337 59.128C87.8617 58.728 87.1177 58.528 86.3017 58.528C85.4857 58.528 84.7417 58.72 84.0697 59.104C83.3977 59.488 82.8617 60.048 82.4617 60.784C82.0617 61.52 81.8617 62.384 81.8617 63.376C81.8617 64.384 82.0617 65.264 82.4617 66.016C82.8617 66.752 83.3977 67.32 84.0697 67.72C84.7417 68.104 85.4857 68.296 86.3017 68.296C87.1177 68.296 87.8617 68.104 88.5337 67.72C89.2217 67.32 89.7657 66.752 90.1657 66.016C90.5657 65.264 90.7657 64.392 90.7657 63.4ZM98.8484 58.984C99.2324 58.232 99.7764 57.648 100.48 57.232C101.2 56.816 102.072 56.608 103.096 56.608V58.864H102.52C100.072 58.864 98.8484 60.192 98.8484 62.848V70H96.6644V56.848H98.8484V58.984ZM104.802 63.4C104.802 62.04 105.074 60.856 105.618 59.848C106.162 58.824 106.914 58.032 107.874 57.472C108.85 56.912 109.962 56.632 111.21 56.632C112.826 56.632 114.154 57.024 115.194 57.808C116.25 58.592 116.946 59.68 117.282 61.072H114.93C114.706 60.272 114.266 59.64 113.61 59.176C112.97 58.712 112.17 58.48 111.21 58.48C109.962 58.48 108.954 58.912 108.186 59.776C107.418 60.624 107.034 61.832 107.034 63.4C107.034 64.984 107.418 66.208 108.186 67.072C108.954 67.936 109.962 68.368 111.21 68.368C112.17 68.368 112.97 68.144 113.61 67.696C114.25 67.248 114.69 66.608 114.93 65.776H117.282C116.93 67.12 116.226 68.2 115.17 69.016C114.114 69.816 112.794 70.216 111.21 70.216C109.962 70.216 108.85 69.936 107.874 69.376C106.914 68.816 106.162 68.024 105.618 67C105.074 65.976 104.802 64.776 104.802 63.4ZM126.724 56.608C127.716 56.608 128.612 56.824 129.412 57.256C130.212 57.672 130.836 58.304 131.284 59.152C131.748 60 131.98 61.032 131.98 62.248V70H129.82V62.56C129.82 61.248 129.492 60.248 128.836 59.56C128.18 58.856 127.284 58.504 126.148 58.504C124.996 58.504 124.076 58.864 123.388 59.584C122.716 60.304 122.38 61.352 122.38 62.728V70H120.196V52.24H122.38V58.72C122.812 58.048 123.404 57.528 124.156 57.16C124.924 56.792 125.78 56.608 126.724 56.608ZM141.13 63.376C141.13 62.032 141.402 60.856 141.946 59.848C142.49 58.824 143.234 58.032 144.178 57.472C145.138 56.912 146.202 56.632 147.37 56.632C148.522 56.632 149.522 56.88 150.37 57.376C151.218 57.872 151.85 58.496 152.266 59.248V56.848H154.474V70H152.266V67.552C151.834 68.32 151.186 68.96 150.322 69.472C149.474 69.968 148.482 70.216 147.346 70.216C146.178 70.216 145.122 69.928 144.178 69.352C143.234 68.776 142.49 67.968 141.946 66.928C141.402 65.888 141.13 64.704 141.13 63.376ZM152.266 63.4C152.266 62.408 152.066 61.544 151.666 60.808C151.266 60.072 150.722 59.512 150.034 59.128C149.362 58.728 148.618 58.528 147.802 58.528C146.986 58.528 146.242 58.72 145.57 59.104C144.898 59.488 144.362 60.048 143.962 60.784C143.562 61.52 143.362 62.384 143.362 63.376C143.362 64.384 143.562 65.264 143.962 66.016C144.362 66.752 144.898 67.32 145.57 67.72C146.242 68.104 146.986 68.296 147.802 68.296C148.618 68.296 149.362 68.104 150.034 67.72C150.722 67.32 151.266 66.752 151.666 66.016C152.066 65.264 152.266 64.392 152.266 63.4ZM164.572 56.608C166.172 56.608 167.468 57.096 168.46 58.072C169.452 59.032 169.948 60.424 169.948 62.248V70H167.788V62.56C167.788 61.248 167.46 60.248 166.804 59.56C166.148 58.856 165.252 58.504 164.116 58.504C162.964 58.504 162.044 58.864 161.356 59.584C160.684 60.304 160.348 61.352 160.348 62.728V70H158.164V56.848L160.348 56.848V58.72C160.78 58.048 161.364 57.528 162.1 57.16C162.852 56.792 163.676 56.608 164.572 56.608ZM184.844 56.848L176.924 76.192H174.668L177.26 69.856L171.956 56.848H174.38L178.508 67.504L182.588 56.848H184.844ZM210.958 56.848L206.854 70H204.598L201.43 59.56L198.262 70H196.006L191.878 56.848H194.11L197.134 67.888L200.398 56.848H202.63L205.822 67.912L208.798 56.848H210.958ZM218.861 70.216C217.629 70.216 216.509 69.936 215.501 69.376C214.509 68.816 213.725 68.024 213.149 67C212.589 65.96 212.309 64.76 212.309 63.4C212.309 62.056 212.597 60.872 213.173 59.848C213.765 58.808 214.565 58.016 215.573 57.472C216.581 56.912 217.709 56.632 218.957 56.632C220.205 56.632 221.333 56.912 222.341 57.472C223.349 58.016 224.141 58.8 224.717 59.824C225.309 60.848 225.605 62.04 225.605 63.4C225.605 64.76 225.301 65.96 224.693 67C224.101 68.024 223.293 68.816 222.269 69.376C221.245 69.936 220.109 70.216 218.861 70.216ZM218.861 68.296C219.645 68.296 220.381 68.112 221.069 67.744C221.757 67.376 222.309 66.824 222.725 66.088C223.157 65.352 223.373 64.456 223.373 63.4C223.373 62.344 223.165 61.448 222.749 60.712C222.333 59.976 221.789 59.432 221.117 59.08C220.445 58.712 219.717 58.528 218.933 58.528C218.133 58.528 217.397 58.712 216.725 59.08C216.069 59.432 215.541 59.976 215.141 60.712C214.741 61.448 214.541 62.344 214.541 63.4C214.541 64.472 214.733 65.376 215.117 66.112C215.517 66.848 216.045 67.4 216.701 67.768C217.357 68.12 218.077 68.296 218.861 68.296ZM230.661 58.984C231.045 58.232 231.589 57.648 232.293 57.232C233.013 56.816 233.885 56.608 234.909 56.608V58.864H234.333C231.885 58.864 230.661 60.192 230.661 62.848V70H228.477V56.848H230.661V58.984ZM236.614 63.376C236.614 62.032 236.886 60.856 237.43 59.848C237.974 58.824 238.718 58.032 239.662 57.472C240.622 56.912 241.694 56.632 242.878 56.632C243.902 56.632 244.854 56.872 245.734 57.352C246.614 57.816 247.286 58.432 247.75 59.2V52.24H249.958V70H247.75V67.528C247.318 68.312 246.678 68.96 245.83 69.472C244.982 69.968 243.99 70.216 242.854 70.216C241.686 70.216 240.622 69.928 239.662 69.352C238.718 68.776 237.974 67.968 237.43 66.928C236.886 65.888 236.614 64.704 236.614 63.376ZM247.75 63.4C247.75 62.408 247.55 61.544 247.15 60.808C246.75 60.072 246.206 59.512 245.518 59.128C244.846 58.728 244.102 58.528 243.286 58.528C242.47 58.528 241.726 58.72 241.054 59.104C240.382 59.488 239.846 60.048 239.446 60.784C239.046 61.52 238.846 62.384 238.846 63.376C238.846 64.384 239.046 65.264 239.446 66.016C239.846 66.752 240.382 67.32 241.054 67.72C241.726 68.104 242.47 68.296 243.286 68.296C244.102 68.296 244.846 68.104 245.518 67.72C246.206 67.32 246.75 66.752 247.15 66.016C247.55 65.264 247.75 64.392 247.75 63.4ZM258.305 70.216C257.297 70.216 256.393 70.048 255.593 69.712C254.793 69.36 254.161 68.88 253.697 68.272C253.233 67.648 252.977 66.936 252.929 66.136H255.185C255.249 66.792 255.553 67.328 256.097 67.744C256.657 68.16 257.385 68.368 258.281 68.368C259.113 68.368 259.769 68.184 260.249 67.816C260.729 67.448 260.969 66.984 260.969 66.424C260.969 65.848 260.713 65.424 260.201 65.152C259.689 64.864 258.897 64.584 257.825 64.312C256.849 64.056 256.049 63.8 255.425 63.544C254.817 63.272 254.289 62.88 253.841 62.368C253.409 61.84 253.193 61.152 253.193 60.304C253.193 59.632 253.393 59.016 253.793 58.456C254.193 57.896 254.761 57.456 255.497 57.136C256.233 56.8 257.073 56.632 258.017 56.632C259.473 56.632 260.649 57 261.545 57.736C262.441 58.472 262.921 59.48 262.985 60.76H260.801C260.753 60.072 260.473 59.52 259.961 59.104C259.465 58.688 258.793 58.48 257.945 58.48C257.161 58.48 256.537 58.648 256.073 58.984C255.609 59.32 255.377 59.76 255.377 60.304C255.377 60.736 255.513 61.096 255.785 61.384C256.073 61.656 256.425 61.88 256.841 62.056C257.273 62.216 257.865 62.4 258.617 62.608C259.561 62.864 260.329 63.12 260.921 63.376C261.513 63.616 262.017 63.984 262.433 64.48C262.865 64.976 263.089 65.624 263.105 66.424C263.105 67.144 262.905 67.792 262.505 68.368C262.105 68.944 261.537 69.4 260.801 69.736C260.081 70.056 259.249 70.216 258.305 70.216ZM268.444 66.976L265.756 73.432H264.292L266.044 66.976H268.444ZM276.528 63.376C276.528 62.032 276.8 60.856 277.344 59.848C277.888 58.824 278.632 58.032 279.576 57.472C280.536 56.912 281.6 56.632 282.768 56.632C283.92 56.632 284.92 56.88 285.768 57.376C286.616 57.872 287.248 58.496 287.664 59.248V56.848H289.872V70H287.664V67.552C287.232 68.32 286.584 68.96 285.72 69.472C284.872 69.968 283.88 70.216 282.744 70.216C281.576 70.216 280.52 69.928 279.576 69.352C278.632 68.776 277.888 67.968 277.344 66.928C276.8 65.888 276.528 64.704 276.528 63.376ZM287.664 63.4C287.664 62.408 287.464 61.544 287.064 60.808C286.664 60.072 286.12 59.512 285.432 59.128C284.76 58.728 284.016 58.528 283.2 58.528C282.384 58.528 281.64 58.72 280.968 59.104C280.296 59.488 279.76 60.048 279.36 60.784C278.96 61.52 278.76 62.384 278.76 63.376C278.76 64.384 278.96 65.264 279.36 66.016C279.76 66.752 280.296 67.32 280.968 67.72C281.64 68.104 282.384 68.296 283.2 68.296C284.016 68.296 284.76 68.104 285.432 67.72C286.12 67.32 286.664 66.752 287.064 66.016C287.464 65.264 287.664 64.392 287.664 63.4ZM299.971 56.608C301.571 56.608 302.867 57.096 303.859 58.072C304.851 59.032 305.347 60.424 305.347 62.248V70H303.187V62.56C303.187 61.248 302.859 60.248 302.203 59.56C301.547 58.856 300.651 58.504 299.515 58.504C298.363 58.504 297.443 58.864 296.755 59.584C296.083 60.304 295.747 61.352 295.747 62.728V70H293.563V56.848H295.747V58.72C296.179 58.048 296.763 57.528 297.499 57.16C298.251 56.792 299.075 56.608 299.971 56.608ZM308.098 63.376C308.098 62.032 308.37 60.856 308.914 59.848C309.458 58.824 310.202 58.032 311.146 57.472C312.106 56.912 313.178 56.632 314.362 56.632C315.386 56.632 316.338 56.872 317.218 57.352C318.098 57.816 318.77 58.432 319.234 59.2V52.24H321.442V70L319.234 70V67.528C318.802 68.312 318.162 68.96 317.314 69.472C316.466 69.968 315.474 70.216 314.338 70.216C313.17 70.216 312.106 69.928 311.146 69.352C310.202 68.776 309.458 67.968 308.914 66.928C308.37 65.888 308.098 64.704 308.098 63.376ZM319.234 63.4C319.234 62.408 319.034 61.544 318.634 60.808C318.234 60.072 317.69 59.512 317.002 59.128C316.33 58.728 315.586 58.528 314.77 58.528C313.954 58.528 313.21 58.72 312.538 59.104C311.866 59.488 311.33 60.048 310.93 60.784C310.53 61.52 310.33 62.384 310.33 63.376C310.33 64.384 310.53 65.264 310.93 66.016C311.33 66.752 311.866 67.32 312.538 67.72C313.21 68.104 313.954 68.296 314.77 68.296C315.586 68.296 316.33 68.104 317.002 67.72C317.69 67.32 318.234 66.752 318.634 66.016C319.034 65.264 319.234 64.392 319.234 63.4ZM349.052 56.848L344.948 70H342.692L339.524 59.56L336.356 70H334.1L329.972 56.848H332.204L335.228 67.888L338.492 56.848H340.724L343.916 67.912L346.892 56.848H349.052ZM363.219 62.92C363.219 63.336 363.195 63.776 363.147 64.24H352.635C352.715 65.536 353.155 66.552 353.955 67.288C354.771 68.008 355.755 68.368 356.907 68.368C357.851 68.368 358.635 68.152 359.259 67.72C359.899 67.272 360.347 66.68 360.603 65.944H362.955C362.603 67.208 361.899 68.24 360.843 69.04C359.787 69.824 358.475 70.216 356.907 70.216C355.659 70.216 354.539 69.936 353.547 69.376C352.571 68.816 351.803 68.024 351.243 67C350.683 65.96 350.403 64.76 350.403 63.4C350.403 62.04 350.675 60.848 351.219 59.824C351.763 58.8 352.523 58.016 353.499 57.472C354.491 56.912 355.627 56.632 356.907 56.632C358.155 56.632 359.259 56.904 360.219 57.448C361.179 57.992 361.915 58.744 362.427 59.704C362.955 60.648 363.219 61.72 363.219 62.92ZM360.963 62.464C360.963 61.632 360.779 60.92 360.411 60.328C360.043 59.72 359.539 59.264 358.899 58.96C358.275 58.64 357.579 58.48 356.811 58.48C355.707 58.48 354.763 58.832 353.979 59.536C353.211 60.24 352.771 61.216 352.659 62.464H360.963ZM377.852 58.648H375.092V70H372.908V58.648H371.204V56.848H372.908V55.912C372.908 54.44 373.284 53.368 374.036 52.696C374.804 52.008 376.028 51.664 377.708 51.664V53.488C376.748 53.488 376.068 53.68 375.668 54.064C375.284 54.432 375.092 55.048 375.092 55.912V56.848H377.852V58.648ZM386.135 70.216C384.903 70.216 383.783 69.936 382.775 69.376C381.783 68.816 380.999 68.024 380.423 67C379.863 65.96 379.583 64.76 379.583 63.4C379.583 62.056 379.871 60.872 380.447 59.848C381.039 58.808 381.839 58.016 382.847 57.472C383.855 56.912 384.983 56.632 386.231 56.632C387.479 56.632 388.607 56.912 389.615 57.472C390.623 58.016 391.415 58.8 391.991 59.824C392.583 60.848 392.879 62.04 392.879 63.4C392.879 64.76 392.575 65.96 391.967 67C391.375 68.024 390.567 68.816 389.543 69.376C388.519 69.936 387.383 70.216 386.135 70.216ZM386.135 68.296C386.919 68.296 387.655 68.112 388.343 67.744C389.031 67.376 389.583 66.824 389.999 66.088C390.431 65.352 390.647 64.456 390.647 63.4C390.647 62.344 390.439 61.448 390.023 60.712C389.607 59.976 389.063 59.432 388.391 59.08C387.719 58.712 386.991 58.528 386.207 58.528C385.407 58.528 384.671 58.712 383.999 59.08C383.343 59.432 382.815 59.976 382.415 60.712C382.015 61.448 381.815 62.344 381.815 63.4C381.815 64.472 382.007 65.376 382.391 66.112C382.791 66.848 383.319 67.4 383.975 67.768C384.631 68.12 385.351 68.296 386.135 68.296ZM407.414 56.848V70H405.23V68.056C404.814 68.728 404.23 69.256 403.478 69.64C402.742 70.008 401.926 70.192 401.03 70.192C400.006 70.192 399.086 69.984 398.27 69.568C397.454 69.136 396.806 68.496 396.326 67.648C395.862 66.8 395.63 65.768 395.63 64.552V56.848H397.79V64.264C397.79 65.56 398.118 66.56 398.774 67.264C399.43 67.952 400.326 68.296 401.462 68.296C402.63 68.296 403.55 67.936 404.222 67.216C404.894 66.496 405.23 65.448 405.23 64.072V56.848H407.414ZM417.51 56.608C419.11 56.608 420.406 57.096 421.398 58.072C422.39 59.032 422.886 60.424 422.886 62.248V70H420.726V62.56C420.726 61.248 420.398 60.248 419.742 59.56C419.086 58.856 418.19 58.504 417.054 58.504C415.902 58.504 414.982 58.864 414.294 59.584C413.622 60.304 413.286 61.352 413.286 62.728V70H411.102V56.848H413.286V58.72C413.718 58.048 414.302 57.528 415.038 57.16C415.79 56.792 416.614 56.608 417.51 56.608ZM425.637 63.376C425.637 62.032 425.909 60.856 426.453 59.848C426.997 58.824 427.741 58.032 428.685 57.472C429.645 56.912 430.717 56.632 431.901 56.632C432.925 56.632 433.877 56.872 434.757 57.352C435.637 57.816 436.309 58.432 436.773 59.2V52.24H438.981V70H436.773V67.528C436.341 68.312 435.701 68.96 434.853 69.472C434.005 69.968 433.013 70.216 431.877 70.216C430.709 70.216 429.645 69.928 428.685 69.352C427.741 68.776 426.997 67.968 426.453 66.928C425.909 65.888 425.637 64.704 425.637 63.376ZM436.773 63.4C436.773 62.408 436.573 61.544 436.173 60.808C435.773 60.072 435.229 59.512 434.541 59.128C433.869 58.728 433.125 58.528 432.309 58.528C431.493 58.528 430.749 58.72 430.077 59.104C429.405 59.488 428.869 60.048 428.469 60.784C428.069 61.52 427.869 62.384 427.869 63.376C427.869 64.384 428.069 65.264 428.469 66.016C428.869 66.752 429.405 67.32 430.077 67.72C430.749 68.104 431.493 68.296 432.309 68.296C433.125 68.296 433.869 68.104 434.541 67.72C435.229 67.32 435.773 66.752 436.173 66.016C436.573 65.264 436.773 64.392 436.773 63.4ZM451.735 58.648V66.4C451.735 67.04 451.871 67.496 452.143 67.768C452.415 68.024 452.887 68.152 453.559 68.152H455.167V70H453.199C451.983 70 451.071 69.72 450.463 69.16C449.855 68.6 449.551 67.68 449.551 66.4V58.648H447.847V56.848H449.551V53.536H451.735V56.848H455.167V58.648H451.735ZM464.341 56.608C465.333 56.608 466.229 56.824 467.029 57.256C467.829 57.672 468.453 58.304 468.901 59.152C469.365 60 469.597 61.032 469.597 62.248V70H467.437V62.56C467.437 61.248 467.109 60.248 466.453 59.56C465.797 58.856 464.901 58.504 463.765 58.504C462.613 58.504 461.693 58.864 461.005 59.584C460.333 60.304 459.997 61.352 459.997 62.728V70H457.813V52.24H459.997V58.72C460.429 58.048 461.021 57.528 461.773 57.16C462.541 56.792 463.397 56.608 464.341 56.608ZM474.292 54.712C473.876 54.712 473.524 54.568 473.236 54.28C472.948 53.992 472.804 53.64 472.804 53.224C472.804 52.808 472.948 52.456 473.236 52.168C473.524 51.88 473.876 51.736 474.292 51.736C474.692 51.736 475.028 51.88 475.3 52.168C475.588 52.456 475.732 52.808 475.732 53.224C475.732 53.64 475.588 53.992 475.3 54.28C475.028 54.568 474.692 54.712 474.292 54.712ZM475.348 56.848V70H473.164V56.848H475.348ZM483.727 70.216C482.719 70.216 481.815 70.048 481.015 69.712C480.215 69.36 479.583 68.88 479.119 68.272C478.655 67.648 478.399 66.936 478.351 66.136H480.607C480.671 66.792 480.975 67.328 481.519 67.744C482.079 68.16 482.807 68.368 483.703 68.368C484.535 68.368 485.191 68.184 485.671 67.816C486.151 67.448 486.391 66.984 486.391 66.424C486.391 65.848 486.135 65.424 485.623 65.152C485.111 64.864 484.319 64.584 483.247 64.312C482.271 64.056 481.471 63.8 480.847 63.544C480.239 63.272 479.711 62.88 479.263 62.368C478.831 61.84 478.615 61.152 478.615 60.304C478.615 59.632 478.815 59.016 479.215 58.456C479.615 57.896 480.183 57.456 480.919 57.136C481.655 56.8 482.495 56.632 483.439 56.632C484.895 56.632 486.071 57 486.967 57.736C487.863 58.472 488.343 59.48 488.407 60.76H486.223C486.175 60.072 485.895 59.52 485.383 59.104C484.887 58.688 484.215 58.48 483.367 58.48C482.583 58.48 481.959 58.648 481.495 58.984C481.031 59.32 480.799 59.76 480.799 60.304C480.799 60.736 480.935 61.096 481.207 61.384C481.495 61.656 481.847 61.88 482.263 62.056C482.695 62.216 483.287 62.4 484.039 62.608C484.983 62.864 485.751 63.12 486.343 63.376C486.935 63.616 487.439 63.984 487.855 64.48C488.287 64.976 488.511 65.624 488.527 66.424C488.527 67.144 488.327 67.792 487.927 68.368C487.527 68.944 486.959 69.4 486.223 69.736C485.503 70.056 484.671 70.216 483.727 70.216ZM515.528 56.848L511.424 70H509.168L506 59.56L502.832 70H500.576L496.448 56.848H498.68L501.704 67.888L504.968 56.848H507.2L510.392 67.912L513.368 56.848H515.528ZM523.432 70.216C522.2 70.216 521.08 69.936 520.072 69.376C519.08 68.816 518.296 68.024 517.72 67C517.16 65.96 516.88 64.76 516.88 63.4C516.88 62.056 517.168 60.872 517.744 59.848C518.336 58.808 519.136 58.016 520.144 57.472C521.152 56.912 522.28 56.632 523.528 56.632C524.776 56.632 525.904 56.912 526.912 57.472C527.92 58.016 528.712 58.8 529.288 59.824C529.88 60.848 530.176 62.04 530.176 63.4C530.176 64.76 529.872 65.96 529.264 67C528.672 68.024 527.864 68.816 526.84 69.376C525.816 69.936 524.68 70.216 523.432 70.216ZM523.432 68.296C524.216 68.296 524.952 68.112 525.64 67.744C526.328 67.376 526.88 66.824 527.296 66.088C527.728 65.352 527.944 64.456 527.944 63.4C527.944 62.344 527.736 61.448 527.32 60.712C526.904 59.976 526.36 59.432 525.688 59.08C525.016 58.712 524.288 58.528 523.504 58.528C522.704 58.528 521.968 58.712 521.296 59.08C520.64 59.432 520.112 59.976 519.712 60.712C519.312 61.448 519.112 62.344 519.112 63.4C519.112 64.472 519.304 65.376 519.688 66.112C520.088 66.848 520.616 67.4 521.272 67.768C521.928 68.12 522.648 68.296 523.432 68.296ZM535.231 58.984C535.615 58.232 536.159 57.648 536.863 57.232C537.583 56.816 538.455 56.608 539.479 56.608V58.864H538.903C536.455 58.864 535.231 60.192 535.231 62.848V70H533.047V56.848H535.231V58.984ZM541.184 63.376C541.184 62.032 541.456 60.856 542 59.848C542.544 58.824 543.288 58.032 544.232 57.472C545.192 56.912 546.264 56.632 547.448 56.632C548.472 56.632 549.424 56.872 550.304 57.352C551.184 57.816 551.856 58.432 552.32 59.2V52.24H554.528V70H552.32V67.528C551.888 68.312 551.248 68.96 550.4 69.472C549.552 69.968 548.56 70.216 547.424 70.216C546.256 70.216 545.192 69.928 544.232 69.352C543.288 68.776 542.544 67.968 542 66.928C541.456 65.888 541.184 64.704 541.184 63.376ZM552.32 63.4C552.32 62.408 552.12 61.544 551.72 60.808C551.32 60.072 550.776 59.512 550.088 59.128C549.416 58.728 548.672 58.528 547.856 58.528C547.04 58.528 546.296 58.72 545.624 59.104C544.952 59.488 544.416 60.048 544.016 60.784C543.616 61.52 543.416 62.384 543.416 63.376C543.416 64.384 543.616 65.264 544.016 66.016C544.416 66.752 544.952 67.32 545.624 67.72C546.296 68.104 547.04 68.296 547.856 68.296C548.672 68.296 549.416 68.104 550.088 67.72C550.776 67.32 551.32 66.752 551.72 66.016C552.12 65.264 552.32 64.392 552.32 63.4ZM120.985 99.376C120.985 98.032 121.257 96.856 121.801 95.848C122.345 94.824 123.089 94.032 124.033 93.472C124.993 92.912 126.065 92.632 127.249 92.632C128.273 92.632 129.225 92.872 130.105 93.352C130.985 93.816 131.657 94.432 132.121 95.2V88.24H134.329V106H132.121V103.528C131.689 104.312 131.049 104.96 130.201 105.472C129.353 105.968 128.361 106.216 127.225 106.216C126.057 106.216 124.993 105.928 124.033 105.352C123.089 104.776 122.345 103.968 121.801 102.928C121.257 101.888 120.985 100.704 120.985 99.376ZM132.121 99.4C132.121 98.408 131.921 97.544 131.521 96.808C131.121 96.072 130.577 95.512 129.889 95.128C129.217 94.728 128.473 94.528 127.657 94.528C126.841 94.528 126.097 94.72 125.425 95.104C124.753 95.488 124.217 96.048 123.817 96.784C123.417 97.52 123.217 98.384 123.217 99.376C123.217 100.384 123.417 101.264 123.817 102.016C124.217 102.752 124.753 103.32 125.425 103.72C126.097 104.104 126.841 104.296 127.657 104.296C128.473 104.296 129.217 104.104 129.889 103.72C130.577 103.32 131.121 102.752 131.521 102.016C131.921 101.264 132.121 100.392 132.121 99.4ZM150.02 98.92C150.02 99.336 149.996 99.776 149.948 100.24H139.436C139.516 101.536 139.956 102.552 140.756 103.288C141.572 104.008 142.556 104.368 143.708 104.368C144.652 104.368 145.436 104.152 146.06 103.72C146.7 103.272 147.148 102.68 147.404 101.944H149.756C149.404 103.208 148.7 104.24 147.644 105.04C146.588 105.824 145.276 106.216 143.708 106.216C142.46 106.216 141.34 105.936 140.348 105.376C139.372 104.816 138.604 104.024 138.044 103C137.484 101.96 137.204 100.76 137.204 99.4C137.204 98.04 137.476 96.848 138.02 95.824C138.564 94.8 139.324 94.016 140.3 93.472C141.292 92.912 142.428 92.632 143.708 92.632C144.956 92.632 146.06 92.904 147.02 93.448C147.98 93.992 148.716 94.744 149.228 95.704C149.756 96.648 150.02 97.72 150.02 98.92ZM147.764 98.464C147.764 97.632 147.58 96.92 147.212 96.328C146.844 95.72 146.34 95.264 145.7 94.96C145.076 94.64 144.38 94.48 143.612 94.48C142.508 94.48 141.564 94.832 140.78 95.536C140.012 96.24 139.572 97.216 139.46 98.464H147.764ZM158.255 94.648H155.495V106H153.311V94.648H151.607V92.848H153.311V91.912C153.311 90.44 153.687 89.368 154.439 88.696C155.207 88.008 156.431 87.664 158.111 87.664V89.488C157.151 89.488 156.471 89.68 156.071 90.064C155.687 90.432 155.495 91.048 155.495 91.912V92.848H158.255V94.648ZM161.929 90.712C161.513 90.712 161.161 90.568 160.873 90.28C160.585 89.992 160.441 89.64 160.441 89.224C160.441 88.808 160.585 88.456 160.873 88.168C161.161 87.88 161.513 87.736 161.929 87.736C162.329 87.736 162.665 87.88 162.937 88.168C163.225 88.456 163.369 88.808 163.369 89.224C163.369 89.64 163.225 89.992 162.937 90.28C162.665 90.568 162.329 90.712 161.929 90.712ZM162.985 92.848V106H160.801V92.848H162.985ZM173.115 92.608C174.715 92.608 176.011 93.096 177.003 94.072C177.995 95.032 178.491 96.424 178.491 98.248V106H176.331V98.56C176.331 97.248 176.003 96.248 175.347 95.56C174.691 94.856 173.795 94.504 172.659 94.504C171.507 94.504 170.587 94.864 169.899 95.584C169.227 96.304 168.891 97.352 168.891 98.728V106H166.707V92.848H168.891V94.72C169.323 94.048 169.907 93.528 170.643 93.16C171.395 92.792 172.219 92.608 173.115 92.608ZM181.243 99.376C181.243 98.032 181.515 96.856 182.059 95.848C182.603 94.824 183.347 94.032 184.291 93.472C185.251 92.912 186.315 92.632 187.483 92.632C188.635 92.632 189.635 92.88 190.483 93.376C191.331 93.872 191.963 94.496 192.379 95.248V92.848H194.587V106H192.379V103.552C191.947 104.32 191.299 104.96 190.435 105.472C189.587 105.968 188.595 106.216 187.459 106.216C186.291 106.216 185.235 105.928 184.291 105.352C183.347 104.776 182.603 103.968 182.059 102.928C181.515 101.888 181.243 100.704 181.243 99.376ZM192.379 99.4C192.379 98.408 192.179 97.544 191.779 96.808C191.379 96.072 190.835 95.512 190.147 95.128C189.475 94.728 188.731 94.528 187.915 94.528C187.099 94.528 186.355 94.72 185.683 95.104C185.011 95.488 184.475 96.048 184.075 96.784C183.675 97.52 183.475 98.384 183.475 99.376C183.475 100.384 183.675 101.264 184.075 102.016C184.475 102.752 185.011 103.32 185.683 103.72C186.355 104.104 187.099 104.296 187.915 104.296C188.731 104.296 189.475 104.104 190.147 103.72C190.835 103.32 191.379 102.752 191.779 102.016C192.179 101.264 192.379 100.392 192.379 99.4ZM200.942 94.648V102.4C200.942 103.04 201.078 103.496 201.35 103.768C201.622 104.024 202.094 104.152 202.766 104.152H204.374V106H202.406C201.19 106 200.278 105.72 199.67 105.16C199.062 104.6 198.758 103.68 198.758 102.4V94.648H197.054V92.848H198.758V89.536H200.942V92.848H204.374V94.648H200.942ZM208.148 90.712C207.732 90.712 207.38 90.568 207.092 90.28C206.804 89.992 206.66 89.64 206.66 89.224C206.66 88.808 206.804 88.456 207.092 88.168C207.38 87.88 207.732 87.736 208.148 87.736C208.548 87.736 208.884 87.88 209.156 88.168C209.444 88.456 209.588 88.808 209.588 89.224C209.588 89.64 209.444 89.992 209.156 90.28C208.884 90.568 208.548 90.712 208.148 90.712ZM209.204 92.848V106H207.02V92.848H209.204ZM218.662 106.216C217.43 106.216 216.31 105.936 215.302 105.376C214.31 104.816 213.526 104.024 212.95 103C212.39 101.96 212.11 100.76 212.11 99.4C212.11 98.056 212.398 96.872 212.974 95.848C213.566 94.808 214.366 94.016 215.374 93.472C216.382 92.912 217.51 92.632 218.758 92.632C220.006 92.632 221.134 92.912 222.142 93.472C223.15 94.016 223.942 94.8 224.518 95.824C225.11 96.848 225.406 98.04 225.406 99.4C225.406 100.76 225.102 101.96 224.494 103C223.902 104.024 223.094 104.816 222.07 105.376C221.046 105.936 219.91 106.216 218.662 106.216ZM218.662 104.296C219.446 104.296 220.182 104.112 220.87 103.744C221.558 103.376 222.11 102.824 222.526 102.088C222.958 101.352 223.174 100.456 223.174 99.4C223.174 98.344 222.966 97.448 222.55 96.712C222.134 95.976 221.59 95.432 220.918 95.08C220.246 94.712 219.518 94.528 218.734 94.528C217.934 94.528 217.198 94.712 216.526 95.08C215.87 95.432 215.342 95.976 214.942 96.712C214.542 97.448 214.342 98.344 214.342 99.4C214.342 100.472 214.534 101.376 214.918 102.112C215.318 102.848 215.846 103.4 216.502 103.768C217.158 104.12 217.878 104.296 218.662 104.296ZM234.686 92.608C236.286 92.608 237.582 93.096 238.574 94.072C239.566 95.032 240.062 96.424 240.062 98.248V106H237.902V98.56C237.902 97.248 237.574 96.248 236.918 95.56C236.262 94.856 235.366 94.504 234.23 94.504C233.078 94.504 232.158 94.864 231.47 95.584C230.798 96.304 230.462 97.352 230.462 98.728V106H228.278V92.848H230.462V94.72C230.894 94.048 231.478 93.528 232.214 93.16C232.966 92.792 233.79 92.608 234.686 92.608ZM245.885 102.976L243.197 109.432H241.733L243.485 102.976H245.885ZM257.45 94.648V102.4C257.45 103.04 257.586 103.496 257.858 103.768C258.13 104.024 258.602 104.152 259.273 104.152H260.882V106H258.914C257.698 106 256.786 105.72 256.178 105.16C255.57 104.6 255.266 103.68 255.266 102.4V94.648H253.562V92.848H255.266V89.536H257.45V92.848H260.882V94.648H257.45ZM265.712 94.984C266.096 94.232 266.64 93.648 267.344 93.232C268.064 92.816 268.936 92.608 269.96 92.608V94.864H269.384C266.936 94.864 265.712 96.192 265.712 98.848V106H263.528V92.848H265.712V94.984ZM271.665 99.376C271.665 98.032 271.937 96.856 272.481 95.848C273.025 94.824 273.769 94.032 274.713 93.472C275.673 92.912 276.737 92.632 277.905 92.632C279.057 92.632 280.057 92.88 280.905 93.376C281.753 93.872 282.385 94.496 282.801 95.248V92.848H285.009V106H282.801V103.552C282.369 104.32 281.721 104.96 280.857 105.472C280.009 105.968 279.017 106.216 277.881 106.216C276.713 106.216 275.657 105.928 274.713 105.352C273.769 104.776 273.025 103.968 272.481 102.928C271.937 101.888 271.665 100.704 271.665 99.376ZM282.801 99.4C282.801 98.408 282.601 97.544 282.201 96.808C281.801 96.072 281.257 95.512 280.569 95.128C279.897 94.728 279.153 94.528 278.337 94.528C277.521 94.528 276.777 94.72 276.105 95.104C275.433 95.488 274.897 96.048 274.497 96.784C274.097 97.52 273.897 98.384 273.897 99.376C273.897 100.384 274.097 101.264 274.497 102.016C274.897 102.752 275.433 103.32 276.105 103.72C276.777 104.104 277.521 104.296 278.337 104.296C279.153 104.296 279.897 104.104 280.569 103.72C281.257 103.32 281.801 102.752 282.201 102.016C282.601 101.264 282.801 100.392 282.801 99.4ZM295.108 92.608C296.708 92.608 298.004 93.096 298.996 94.072C299.988 95.032 300.484 96.424 300.484 98.248V106H298.324V98.56C298.324 97.248 297.996 96.248 297.34 95.56C296.684 94.856 295.788 94.504 294.652 94.504C293.5 94.504 292.58 94.864 291.892 95.584C291.22 96.304 290.884 97.352 290.884 98.728V106H288.7V92.848H290.884V94.72C291.316 94.048 291.9 93.528 292.636 93.16C293.388 92.792 294.212 92.608 295.108 92.608ZM308.707 106.216C307.699 106.216 306.795 106.048 305.995 105.712C305.195 105.36 304.563 104.88 304.099 104.272C303.635 103.648 303.379 102.936 303.331 102.136H305.587C305.651 102.792 305.955 103.328 306.499 103.744C307.059 104.16 307.787 104.368 308.683 104.368C309.515 104.368 310.171 104.184 310.651 103.816C311.131 103.448 311.371 102.984 311.371 102.424C311.371 101.848 311.115 101.424 310.603 101.152C310.091 100.864 309.299 100.584 308.227 100.312C307.251 100.056 306.451 99.8 305.827 99.544C305.219 99.272 304.691 98.88 304.243 98.368C303.811 97.84 303.595 97.152 303.595 96.304C303.595 95.632 303.795 95.016 304.195 94.456C304.595 93.896 305.163 93.456 305.899 93.136C306.635 92.8 307.475 92.632 308.419 92.632C309.875 92.632 311.051 93 311.947 93.736C312.843 94.472 313.323 95.48 313.387 96.76H311.203C311.155 96.072 310.875 95.52 310.363 95.104C309.867 94.688 309.195 94.48 308.347 94.48C307.563 94.48 306.939 94.648 306.475 94.984C306.011 95.32 305.779 95.76 305.779 96.304C305.779 96.736 305.915 97.096 306.187 97.384C306.475 97.656 306.827 97.88 307.243 98.056C307.675 98.216 308.267 98.4 309.019 98.608C309.963 98.864 310.731 99.12 311.323 99.376C311.915 99.616 312.419 99.984 312.835 100.48C313.267 100.976 313.491 101.624 313.507 102.424C313.507 103.144 313.307 103.792 312.907 104.368C312.507 104.944 311.939 105.4 311.203 105.736C310.483 106.056 309.651 106.216 308.707 106.216ZM318.774 88.24V106H316.59V88.24H318.774ZM321.68 99.376C321.68 98.032 321.952 96.856 322.496 95.848C323.04 94.824 323.784 94.032 324.728 93.472C325.688 92.912 326.752 92.632 327.92 92.632C329.072 92.632 330.072 92.88 330.92 93.376C331.768 93.872 332.4 94.496 332.816 95.248V92.848H335.024V106H332.816V103.552C332.384 104.32 331.736 104.96 330.872 105.472C330.024 105.968 329.032 106.216 327.896 106.216C326.728 106.216 325.672 105.928 324.728 105.352C323.784 104.776 323.04 103.968 322.496 102.928C321.952 101.888 321.68 100.704 321.68 99.376ZM332.816 99.4C332.816 98.408 332.616 97.544 332.216 96.808C331.816 96.072 331.272 95.512 330.584 95.128C329.912 94.728 329.168 94.528 328.352 94.528C327.536 94.528 326.792 94.72 326.12 95.104C325.448 95.488 324.912 96.048 324.512 96.784C324.112 97.52 323.912 98.384 323.912 99.376C323.912 100.384 324.112 101.264 324.512 102.016C324.912 102.752 325.448 103.32 326.12 103.72C326.792 104.104 327.536 104.296 328.352 104.296C329.168 104.296 329.912 104.104 330.584 103.72C331.272 103.32 331.816 102.752 332.216 102.016C332.616 101.264 332.816 100.392 332.816 99.4ZM341.379 94.648V102.4C341.379 103.04 341.515 103.496 341.787 103.768C342.059 104.024 342.531 104.152 343.203 104.152H344.811V106H342.843C341.627 106 340.715 105.72 340.107 105.16C339.499 104.6 339.195 103.68 339.195 102.4V94.648H337.491V92.848H339.195V89.536H341.379V92.848H344.811V94.648H341.379ZM348.585 90.712C348.169 90.712 347.817 90.568 347.529 90.28C347.241 89.992 347.097 89.64 347.097 89.224C347.097 88.808 347.241 88.456 347.529 88.168C347.817 87.88 348.169 87.736 348.585 87.736C348.985 87.736 349.321 87.88 349.593 88.168C349.881 88.456 350.025 88.808 350.025 89.224C350.025 89.64 349.881 89.992 349.593 90.28C349.321 90.568 348.985 90.712 348.585 90.712ZM349.641 92.848V106H347.457V92.848H349.641ZM359.1 106.216C357.868 106.216 356.748 105.936 355.74 105.376C354.748 104.816 353.964 104.024 353.388 103C352.828 101.96 352.548 100.76 352.548 99.4C352.548 98.056 352.836 96.872 353.412 95.848C354.004 94.808 354.804 94.016 355.812 93.472C356.82 92.912 357.948 92.632 359.196 92.632C360.444 92.632 361.572 92.912 362.58 93.472C363.588 94.016 364.38 94.8 364.956 95.824C365.548 96.848 365.844 98.04 365.844 99.4C365.844 100.76 365.54 101.96 364.932 103C364.34 104.024 363.532 104.816 362.508 105.376C361.484 105.936 360.348 106.216 359.1 106.216ZM359.1 104.296C359.884 104.296 360.62 104.112 361.308 103.744C361.996 103.376 362.548 102.824 362.964 102.088C363.396 101.352 363.612 100.456 363.612 99.4C363.612 98.344 363.404 97.448 362.988 96.712C362.572 95.976 362.028 95.432 361.356 95.08C360.684 94.712 359.956 94.528 359.172 94.528C358.372 94.528 357.636 94.712 356.964 95.08C356.308 95.432 355.78 95.976 355.38 96.712C354.98 97.448 354.78 98.344 354.78 99.4C354.78 100.472 354.972 101.376 355.356 102.112C355.756 102.848 356.284 103.4 356.94 103.768C357.596 104.12 358.316 104.296 359.1 104.296ZM375.123 92.608C376.723 92.608 378.019 93.096 379.011 94.072C380.003 95.032 380.499 96.424 380.499 98.248V106H378.339V98.56C378.339 97.248 378.011 96.248 377.355 95.56C376.699 94.856 375.803 94.504 374.667 94.504C373.515 94.504 372.595 94.864 371.907 95.584C371.235 96.304 370.899 97.352 370.899 98.728V106H368.715V92.848H370.899V94.72C371.331 94.048 371.915 93.528 372.651 93.16C373.403 92.792 374.227 92.608 375.123 92.608ZM389.649 99.376C389.649 98.032 389.921 96.856 390.465 95.848C391.009 94.824 391.753 94.032 392.697 93.472C393.657 92.912 394.721 92.632 395.889 92.632C397.041 92.632 398.041 92.88 398.889 93.376C399.737 93.872 400.369 94.496 400.785 95.248V92.848H402.993V106H400.785V103.552C400.353 104.32 399.705 104.96 398.841 105.472C397.993 105.968 397.001 106.216 395.865 106.216C394.697 106.216 393.641 105.928 392.697 105.352C391.753 104.776 391.009 103.968 390.465 102.928C389.921 101.888 389.649 100.704 389.649 99.376ZM400.785 99.4C400.785 98.408 400.585 97.544 400.185 96.808C399.785 96.072 399.241 95.512 398.553 95.128C397.881 94.728 397.137 94.528 396.321 94.528C395.505 94.528 394.761 94.72 394.089 95.104C393.417 95.488 392.881 96.048 392.481 96.784C392.081 97.52 391.881 98.384 391.881 99.376C391.881 100.384 392.081 101.264 392.481 102.016C392.881 102.752 393.417 103.32 394.089 103.72C394.761 104.104 395.505 104.296 396.321 104.296C397.137 104.296 397.881 104.104 398.553 103.72C399.241 103.32 399.785 102.752 400.185 102.016C400.585 101.264 400.785 100.392 400.785 99.4ZM413.092 92.608C414.692 92.608 415.988 93.096 416.98 94.072C417.972 95.032 418.468 96.424 418.468 98.248V106H416.308V98.56C416.308 97.248 415.98 96.248 415.324 95.56C414.668 94.856 413.772 94.504 412.636 94.504C411.484 94.504 410.564 94.864 409.876 95.584C409.204 96.304 408.868 97.352 408.868 98.728V106H406.684V92.848H408.868V94.72C409.3 94.048 409.884 93.528 410.62 93.16C411.372 92.792 412.196 92.608 413.092 92.608ZM421.22 99.376C421.22 98.032 421.492 96.856 422.036 95.848C422.58 94.824 423.324 94.032 424.268 93.472C425.228 92.912 426.3 92.632 427.484 92.632C428.508 92.632 429.46 92.872 430.34 93.352C431.22 93.816 431.892 94.432 432.356 95.2V88.24H434.564V106H432.356V103.528C431.924 104.312 431.284 104.96 430.436 105.472C429.588 105.968 428.596 106.216 427.46 106.216C426.292 106.216 425.228 105.928 424.268 105.352C423.324 104.776 422.58 103.968 422.036 102.928C421.492 101.888 421.22 100.704 421.22 99.376ZM432.356 99.4C432.356 98.408 432.156 97.544 431.756 96.808C431.356 96.072 430.812 95.512 430.124 95.128C429.452 94.728 428.708 94.528 427.892 94.528C427.076 94.528 426.332 94.72 425.66 95.104C424.988 95.488 424.452 96.048 424.052 96.784C423.652 97.52 423.452 98.384 423.452 99.376C423.452 100.384 423.652 101.264 424.052 102.016C424.452 102.752 424.988 103.32 425.66 103.72C426.332 104.104 427.076 104.296 427.892 104.296C428.708 104.296 429.452 104.104 430.124 103.72C430.812 103.32 431.356 102.752 431.756 102.016C432.156 101.264 432.356 100.392 432.356 99.4ZM456.653 98.92C456.653 99.336 456.629 99.776 456.581 100.24H446.069C446.149 101.536 446.589 102.552 447.389 103.288C448.205 104.008 449.189 104.368 450.341 104.368C451.285 104.368 452.069 104.152 452.693 103.72C453.333 103.272 453.781 102.68 454.037 101.944H456.389C456.037 103.208 455.333 104.24 454.277 105.04C453.221 105.824 451.909 106.216 450.341 106.216C449.093 106.216 447.973 105.936 446.981 105.376C446.005 104.816 445.237 104.024 444.677 103C444.117 101.96 443.837 100.76 443.837 99.4C443.837 98.04 444.109 96.848 444.653 95.824C445.197 94.8 445.957 94.016 446.933 93.472C447.925 92.912 449.061 92.632 450.341 92.632C451.589 92.632 452.693 92.904 453.653 93.448C454.613 93.992 455.349 94.744 455.861 95.704C456.389 96.648 456.653 97.72 456.653 98.92ZM454.397 98.464C454.397 97.632 454.213 96.92 453.845 96.328C453.477 95.72 452.973 95.264 452.333 94.96C451.709 94.64 451.013 94.48 450.245 94.48C449.141 94.48 448.197 94.832 447.413 95.536C446.645 96.24 446.205 97.216 446.093 98.464H454.397ZM462.2 94.648V102.4C462.2 103.04 462.336 103.496 462.608 103.768C462.88 104.024 463.352 104.152 464.023 104.152H465.632V106H463.664C462.448 106 461.536 105.72 460.928 105.16C460.32 104.6 460.016 103.68 460.016 102.4V94.648H458.312V92.848H460.016V89.536H462.2V92.848H465.632V94.648H462.2ZM467.462 99.4C467.462 98.04 467.734 96.856 468.278 95.848C468.822 94.824 469.574 94.032 470.534 93.472C471.51 92.912 472.622 92.632 473.87 92.632C475.486 92.632 476.814 93.024 477.854 93.808C478.91 94.592 479.606 95.68 479.942 97.072H477.59C477.366 96.272 476.926 95.64 476.27 95.176C475.63 94.712 474.83 94.48 473.87 94.48C472.622 94.48 471.614 94.912 470.846 95.776C470.078 96.624 469.694 97.832 469.694 99.4C469.694 100.984 470.078 102.208 470.846 103.072C471.614 103.936 472.622 104.368 473.87 104.368C474.83 104.368 475.63 104.144 476.27 103.696C476.91 103.248 477.35 102.608 477.59 101.776H479.942C479.59 103.12 478.886 104.2 477.83 105.016C476.774 105.816 475.454 106.216 473.87 106.216C472.622 106.216 471.51 105.936 470.534 105.376C469.574 104.816 468.822 104.024 468.278 103C467.734 101.976 467.462 100.776 467.462 99.4ZM483.552 106.144C483.136 106.144 482.784 106 482.496 105.712C482.208 105.424 482.064 105.072 482.064 104.656C482.064 104.24 482.208 103.888 482.496 103.6C482.784 103.312 483.136 103.168 483.552 103.168C483.952 103.168 484.288 103.312 484.56 103.6C484.848 103.888 484.992 104.24 484.992 104.656C484.992 105.072 484.848 105.424 484.56 105.712C484.288 106 483.952 106.144 483.552 106.144Z" fill="black"/>
</svg>
